<svg xmlns="http://www.w3.org/2000/svg" enable-background="new 0 0 450 450" viewBox="0 0 450 450"><path fill="#83a3fc" d="M361.797 284.947H58.667L10.545 399h429.508l-48.124-114.053h-30.13" class="colorfcc283 svgShape"/><path fill="#06102d" d="M373.307 364.936v10.886c0 5.015-4.047 9.085-9.032 9.085H86.33c-4.996 0-9.043-4.07-9.043-9.085v-10.886h296.02z" class="color06112d svgShape"/><path fill="#0e1938" d="m372.897 362.863-30.623-74.836a5.425 5.425 0 0 0-5.017-3.386H115.69a5.402 5.402 0 0 0-4.953 3.245l-32.975 74.836c-1.586 3.614 1.036 7.663 4.953 7.663h285.164c3.852 0 6.485-3.94 5.018-7.522z" class="color0e1738 svgShape"/><path fill="#07112b" d="M355.61 342.892H95.76c-1.564 0-2.622-1.628-1.985-3.071l21.321-48.43a2.163 2.163 0 0 1 1.986-1.302l218.718-.022c.885 0 1.672.532 2.007 1.357l19.81 48.45c.594 1.445-.452 3.018-2.006 3.018z" class="color070d2b svgShape"/><path fill="#e8eefe" d="M214.65 312.946h-14.66l.52-6.55h14.405zM277.152 321.088h-15.509l-.754-6.54h15.148zM313.11 329.23h-17.55l-1.242-6.539h16.922zM252.178 298.244l.818 6.55H237.7l.043-6.55zM304.951 298.244h30.306l2.677 6.55h-30.009zM221.299 321.088h-15.382l.553-6.54h15.115zM252.529 296.641l-.531-4.231h13.575l.797 4.231zM286.66 330.833l1.794 8.42h-16.73l-1.2-8.42zM286.192 312.946h-14.66l-1.083-6.55h14.128zM239.442 321.088h-14.946l.276-6.54h14.638zM267.283 330.833l1.212 8.42h-78.033l1.19-8.42zM221.097 298.244h13.459l-.043 6.55h-14.106zM272.127 298.244h13.087l1.912 6.55h-14.053zM288.54 298.244h12.895l2.985 6.55h-13.98zM201.817 296.641l.393-4.231h13.533l-.202 4.231zM352.03 339.253h-20.32l-.17-.567-2.232-6.004-.69-1.849h19.97zM229.977 329.23H212.43l.606-6.539h17.25zM269.6 296.641l-.797-4.231h13.3l1.2 4.231zM286.606 296.641l-1.19-4.231h13.47l1.19 4.231zM250.224 329.23h-17.06l.308-6.539h16.71zM269.854 304.794h-13.64l-.817-6.55h13.512zM252.805 306.396h14.415l1.083 6.55h-14.786zM321.596 312.946h-14.414l-1.615-6.55h14.415zM192.799 322.691h17.049l-.616 6.54h-17.357zM325.962 332.885l2.37 6.368h-17.305l-1.795-8.42h15.976l.68 1.838.01.042.033.097zM258.435 321.088H242.63l-.032-6.54h15.084zM235.235 296.641l-.02-4.231h13.575l.53 4.231zM232.049 296.641h-13.31l.19-4.231h13.098zM253.41 329.23l-.042-6.539h17.22l.828 6.54zM274.634 329.23l-.839-6.539h17.272l1.243 6.54zM323.264 306.396h15.328l2.677 6.55h-16.38zM295.784 321.088h-15.392l-1.126-6.54h14.84zM217.836 312.946l.266-6.55h13.947l.032 6.55zM320.162 296.641l-1.19-4.231h13.905l1.732 4.231zM203.825 298.244h14.064l-.69 6.55h-14.012zM303.39 296.641l-1.2-4.231h13.468l1.2 4.231zM297.398 314.549h44.52l2.676 6.54h-45.517zM235.235 306.396h14.351l.733 6.55h-15.052zM305.939 330.833l1.806 8.42h-15.998l-1.806-8.42zM314.554 322.691h30.699l2.677 6.54h-31.507zM303.9 312.946h-14.415l-1.626-6.55h14.426zM147.696 296.641h-29.552l1.87-4.231h29.126zM146.771 321.088h-39.388l2.89-6.54H148.8zM164.32 296.641h-13.257l1.445-4.231h12.831zM165.042 321.088h-14.924l2.028-6.54h14.32zM164.256 304.794h-14.054l2.231-6.55h13.3zM167.177 329.23H150.15l2.263-6.539h16.348zM181.762 296.641h-14.16l1.01-4.231h13.925zM149.066 298.244l-2.23 6.55H133.45l1.816-6.55zM202.21 292.41h-3.197l.16-1.72 3.165.299zM198.62 296.641h-13.618l.786-4.231h13.225zM200.617 298.244l-.627 6.55h-14.659l.892-6.55zM187.434 321.088l1.094-6.54h14.745l-.553 6.54zM103.092 330.833h18.6l-2.167 8.42h-20.13zM172.042 322.691h17.527l-.924 6.54H170.45zM184.194 321.088h-15.89l1.423-6.54h15.561zM125.016 330.833h15.286l-2.04 8.42H122.85zM143.053 312.946h-32.08l2.88-6.55h31.155zM179 312.946h-15.137l1.37-6.55h14.819zM182.102 304.794h-14.585l1.477-6.55h14zM163.417 330.833h25.005l-1.2 8.42h-25.908zM130.147 304.794h-15.583l2.879-6.55h14.52zM160.602 312.946h-14.224l1.955-6.55h13.64zM182.23 312.946l1.062-6.55h14.032l-.531 6.55zM143.616 330.833h16.487l-2.093 8.42h-16.433zM146.771 329.23h-42.968l2.879-6.539h42.363z" class="coloreae8fe svgShape"/><path fill="#06102d" d="M338.746 139.255V279.42c0 2.887-2.32 5.22-5.19 5.22H117.048c-2.87 0-5.2-2.333-5.2-5.22V139.255c0-2.887 2.33-5.231 5.2-5.231h216.506c2.87 0 5.19 2.344 5.19 5.23z" class="color06112d svgShape"/><path fill="#ffffff" d="M119.692 141.914h211.209V276.75H119.692z" class="colorfff svgShape"/><path fill="#bdcefe" d="M88.586 185.93c3.16 3.686 30.895 11.609 30.895 11.609l9.139-17.63s-13.168-17.307-16.902-16.841c-3.692.47 1.482 9.842 1.482 9.842-1.907-1.186-16.105-9.983-16.886-5.755-.286 1.536 1.942 4.512 3.11 5.47-4.145-1.825-10.54-3.32-11.041-1.27-.698 2.854 4.397 4.944 6.21 5.593-1.874-.596-7.347-2.09-7.454.84-.065 1.783 4.165 3.534 6.047 4.504-1.608-.204-6.663 1.239-4.6 3.638z" class="colorfec3bd svgShape"/><path fill="#0e1938" d="m226.435 276.75.05-.408.031-.23-37.706-2.227-.32 2.865zM264.931 276.75l-.2-8.6-36.713 8.6z" class="color0e1738 svgShape"/><path fill="#06102d" d="M221.507 76.794c-.244 3.351-1.762 6.57-4.115 8.73-3.403 3.117-8.465 3.799-12.5 1.792-1.924-.957-3.738-2.689-4.003-4.991-.234-2.037.785-3.983 1.824-5.695a72.936 72.936 0 0 1 9.005-11.887l6.988 2.71c2.017 2.536 3.046 5.979 2.801 9.34z" class="color06112d svgShape"/><path fill="#608afe" d="M115.95 198.69s34.185 32.747 53.005 34.124c1.408.112 2.735.04 3.971-.222 8.64-1.874 19.408-13.827 27.634-24.686 7.323-9.674 12.631-18.476 12.631-18.476L202.05 143.44c-7.618 5.652-22.162 30.655-37.478 51.887l-36.724-19.357-11.897 22.718z" class="colorfe6081 svgShape"/><path fill="#4765b9" d="M168.955 232.814c1.408.112 2.735.04 3.971-.222 8.64-1.874 19.408-13.827 27.634-24.686l.982-13.422-8.387-32.465s-13.969 53.322-24.2 70.795z" class="colorb94768 svgShape"/><path fill="#608afe" d="M184.475 276.75h84.386c-.17-2.605-.388-6.093-.636-10.021-.911-14.74-2.106-35.596-1.823-38.858.608-6.979 5.43-31.604 7.223-51.742 1.083-12.084 1.083-22.548-1.58-26.6-5.238-7.982-25.588-9.015-25.588-9.015l-24.516-1.631s-14.703.308-19.892 4.56c-15.448 12.66-13.29 76.76-13.29 76.76s-2.32 40.583-4.284 56.547z" class="colorfe6081 svgShape"/><path fill="#4765b9" d="m250.782 249.204 11.421 20.36 6.022-2.835c-.911-14.74-2.106-35.596-1.823-38.858.608-6.979 5.43-31.604 7.222-51.742l-15.62-20.026s-6.067 10.14-5.814 19.763c.254 9.623 13.26 40.012 13.26 40.012l-14.668 33.326z" class="colorb94768 svgShape"/><path fill="#bdcefe" d="M227.276 152.915c10.355-.495 19.551-12.056 19.565-12.405.384-8.317 2.14-27.515 3.867-33.46.383-1.31-.737-2.54-1.93-2.126l-25.434 8.706c-.78.27-1.236 1.166-1.027 2.039.318 1.357.55 2.715.709 4.032.057.476.1.944.144 1.413.325 3.976.03 7.595-.368 10.245-.087.58-.196 1.588-.326 2.746v.008c-.31 2.976-.42 4.756-.535 5.192-.058.214-.518 13.89 5.335 13.61z" class="colorfec3bd svgShape"/><path fill="#89a5f1" d="M222.476 134.105v.008s14.093-5.702 16.58-10.603c3.284-6.467-13.826-3.333-13.826-3.333s-.896.405-2.06.937c.325 3.976.03 7.595-.368 10.245-.087.58-.196 1.588-.326 2.746z" class="colorf18b89 svgShape"/><path fill="#bdcefe" d="M216.442 128.934c15.36 4.14 29.076-11.328 32.83-17.765v-.007a38.841 38.841 0 0 0 1.347-2.512c.13-.269.324-.492.573-.658 1.983-1.329 10.97-7.74 8.714-13.425-1.473-3.702-3.99-4.14-5.845-3.855-1.09.167-2.04-.791-1.893-1.884 3.995-29.696-28.714-28.41-37.713-15.007-.397.587-.802 1.31-1.207 2.15-5.857 11.977-13.308 48.515 3.194 52.963z" class="colorfec3bd svgShape"/><ellipse cx="229.585" cy="97.177" fill="#06102d" rx="2.817" ry="1.878" transform="rotate(-87.377 229.585 97.177)" class="color06112d svgShape"/><path fill="#06102d" d="M232.439 92.979a.498.498 0 0 1-.312-.11c-2.944-2.347-4.652-.92-4.724-.86a.502.502 0 0 1-.704-.044.498.498 0 0 1 .038-.701c.095-.086 2.377-2.075 6.013.824a.5.5 0 0 1-.311.89z" class="color06112d svgShape"/><ellipse cx="213.713" cy="97.177" fill="#06102d" rx="2.817" ry="1.878" transform="rotate(-87.377 213.713 97.177)" class="color06112d svgShape"/><path fill="#06102d" d="M216.567 92.979a.498.498 0 0 1-.312-.11c-2.944-2.347-4.651-.92-4.724-.86a.502.502 0 0 1-.704-.044.498.498 0 0 1 .038-.701c.094-.086 2.378-2.075 6.013.824a.5.5 0 0 1-.311.89z" class="color06112d svgShape"/><path fill="#89a5f1" d="M218.42 111.897a.497.497 0 0 1-.332-.127c-.746-.663-1.172-1.554-1.2-2.506-.028-.936.333-1.83 1.016-2.515.261-.262.556-.488.842-.706.166-.128.332-.255.49-.389 1.024-.87 1.715-2.102 1.998-3.562.261-1.345.176-2.76.093-4.129a.5.5 0 0 1 .468-.529.487.487 0 0 1 .53.469c.086 1.43.176 2.91-.109 4.38-.327 1.685-1.134 3.114-2.332 4.133-.17.145-.35.283-.53.42a7.394 7.394 0 0 0-.742.619 2.408 2.408 0 0 0-.725 1.779c.02.675.328 1.31.865 1.79a.5.5 0 0 1-.332.873zM223.105 119.695c-.086 0-.171-.002-.256-.005a.5.5 0 0 1-.481-.518.506.506 0 0 1 .518-.481c2.171.087 4.336-1.03 5.54-2.829a.5.5 0 0 1 .831.557c-1.345 2.01-3.737 3.276-6.152 3.276z" class="colorf18b89 svgShape"/><path fill="#89a5f1" d="M223.105 119.695c-.086 0-.171-.002-.256-.005a.5.5 0 0 1-.481-.518.506.506 0 0 1 .518-.481c2.171.087 4.336-1.03 5.54-2.829a.5.5 0 0 1 .831.557c-1.345 2.01-3.737 3.276-6.152 3.276z" class="colorf18b89 svgShape"/><path fill="#bdcefe" d="M233.084 270.493c1.09.74 4.143.022 5.279-.557-2.135 1.966-4.556 4.995-4.98 6.814h4.96a18.82 18.82 0 0 0 1.73-1.618c-.322.367-.81.952-1.28 1.618H252.1c5.679-5.889 12.297-13.905 12.297-13.905l-10.543-13.02s-17.828 4.335-18.73 7.379c-.883 3.013 8.11 2.178 8.11 2.178-1.56 1.074-13.157 9.08-10.151 11.111z" class="colorfec3bd svgShape"/><path fill="#608afe" d="M270.07 147.356c6.513 4.6 39.688 52.66 37.319 73.587-1.778 15.699-45.186 48.622-45.186 48.622l-11.419-20.357 28.411-31.642s-23.944-30.93-24.219-44.739c-.507-25.472 15.093-25.471 15.093-25.471z" class="colorfe6081 svgShape"/><path fill="#06102d" d="M198.62 59.535c-4.614 4.247-4.015 12.025-.269 16.692a11.185 11.185 0 0 0 7.489 4.074l-.22-1.484c1.4 2.492 3.939 4.312 6.748 4.838 2.809.525 5.835-.254 8.04-2.07 1.795-1.478 3.083-3.603 5.162-4.64 2.451-1.223 5.716-.484 7.402 1.676l.51-1.275c-1.597-.033-2.798 1.716-2.666 3.306.132 1.591 1.232 2.943 2.473 3.947 3.147 2.544 6.913 3.03 10.795 2.518 2.175-.286 2.536.06 2.818 2.426.223 1.873-.07 3.77-.014 5.648a1.695 1.695 0 0 0 3.286.534l1.312-3.574a1.67 1.67 0 0 1 .928-.976c1.583-.648 5.496-1.624 7.492 3.392 2.256 5.686-6.73 12.096-8.714 13.425a1.653 1.653 0 0 0-.573.658 40.62 40.62 0 0 1-1.347 2.52l-1.44 5.631c-.41 1.606-.387 14.817-.387 14.817 5.625-7.36 10.522-16.575 14.915-24.725 2.665-4.945 5.146-10.105 6.639-15.54.62-2.258.726-4.458 1.07-6.742.554-3.68 1.276-6.914-1.65-9.984-1.201-1.26-2.884-2.35-3.074-4.08-.298-2.702 3.32-5.127 2.14-7.575-.656-1.359-2.405-1.69-3.904-1.854l-12.15-1.325c1.52-.828 1.984-2.968 1.274-4.547-.709-1.579-2.32-2.605-3.995-3.037-1.677-.432-3.436-.354-5.165-.273l-7.82.366c-1.033.048-2.104.106-3.023.581-.92.475-1.645 1.492-1.442 2.507 1.308-1.205.738-3.545-.663-4.641-1.4-1.096-3.282-1.291-5.054-1.444-3.806-.33-7.728-.646-11.37.506s-6.975 4.156-7.304 7.961c-2.747-1.125-6.065-.247-8.249 1.763z" class="color06112d svgShape"/><path fill="#375bc0" d="M52.762 276.263c-2.474 2.886-1.672 7.685-.193 11.184.875 2.078 2.243 4.18 1.204 6.462-.44.966-1.257 1.72-2.228 2.155a5.38 5.38 0 0 1-2.533.46 6.113 6.113 0 0 1-.662-.068c-1.382-.227-2.702-.914-3.775-1.837-1.343-1.15-2.585-2.943-3.383-4.862-1.343-3.248-3.992-5.785-7.35-6.824-.131-.044-.267-.082-.397-.126a26.731 26.731 0 0 1-10.86-6.76c-1.986-2.05-3.731-4.675-3.127-7.618.324-1.57 1.44-2.895 2.992-3.296 1.909-.493 3.262.672 4.48 1.793 1.049.967 2.175 1.986 3.697 1.977.735 0 1.455-.343 1.837-.972.628-1.044.024-2.131-.657-2.967a12.21 12.21 0 0 0-6.254-4.021c-2.567-.682-5.384-.532-7.53-2.407-.972-.85-1.508-2.131-1.242-3.393.599-2.846 4.64-2.532 5.185-5.452.194-1.029-.14-2.073-.782-2.904-1.16-1.498-2.987-2.136-4.761-2.653-1.295-.382-2.648-.745-3.634-1.726a3.152 3.152 0 0 1-.788-1.251c-.667-2.079 1.28-3.422 3.04-3.398 1.372.02 2.648.657 3.866 1.285-2.344-3.247-4.688-6.49-7.032-9.733-.778-1.078-1.575-2.2-1.846-3.504-.27-1.3.13-2.842 1.29-3.494.909-.518 2.079-.368 3.011.11.928.484 1.668 1.257 2.393 2.016l10.081 10.575c-.42-1.634-.333-3.195-.11-4.867.221-1.672 1.256-3.35 2.875-3.813 1.455-.42 3.05.231 4.118 1.3 1.068 1.068 1.691 2.489 2.208 3.91 1.846 5.065 1.827 10.333 1.402 15.707 1.629-2.934 2.416-6.418 5.447-7.854 1.59-.754 3.05 1.813 3.649 3.466.604 1.648.613 3.445.618 5.2l.03 12.445c1.507-1.822 3.083-3.702 5.427-4.437 1.063-.333 2.218-.353 3.247.073 2.475 1.02 2.852 3.76 2.707 6.138a23.884 23.884 0 0 1-5.66 13.981z" class="color37c092 svgShape"/><path fill="#233e8a" d="M49.012 296.523a6.113 6.113 0 0 1-.662-.067c1.087-17.612-8.071-35.547-15.983-47.528-8.641-13.093-17.698-22.092-17.785-22.179a.335.335 0 0 1-.005-.473.331.331 0 0 1 .473 0c.092.087 9.193 9.134 17.878 22.285 7.97 12.073 17.2 30.153 16.084 47.962z" class="color238a6f svgShape"/><path fill="#233e8a" d="M32.249 248.055a.333.333 0 0 1-.554-.31c.016-.083 1.588-8.368.384-11.963a.334.334 0 1 1 .634-.212c1.259 3.761-.295 11.955-.362 12.302a.332.332 0 0 1-.102.183z" class="color238a6f svgShape"/><path fill="#233e8a" d="M32.248 248.056a.334.334 0 0 1-.428.018c-.065-.05-6.57-4.982-10.429-4.484a.334.334 0 1 1-.085-.663c4.131-.533 10.645 4.406 10.92 4.616a.334.334 0 0 1 .022.513zM40.564 262.256a.333.333 0 0 1-.531-.381c.042-.095 4.155-9.581 2.615-14.5a.333.333 0 1 1 .638-.199c1.614 5.157-2.467 14.569-2.642 14.967a.331.331 0 0 1-.08.113zM39.785 260.72a.334.334 0 0 1-.395.04c-.092-.054-9.312-5.441-14.433-4.481a.334.334 0 0 1-.123-.656c5.367-1.007 14.509 4.335 14.896 4.562a.334.334 0 0 1 .055.535zM45.325 273.527a.334.334 0 0 1-.457-.486l.065-.063c2.56-2.475 7.064-7.454 8.462-12.994a.334.334 0 0 1 .648.164c-1.438 5.7-6.034 10.785-8.646 13.31l-.064.062a.31.31 0 0 1-.008.007zM47.735 282.168a.334.334 0 0 1-.42.024c-.136-.098-13.64-9.741-20.568-8.574a.334.334 0 1 1-.112-.658c7.202-1.214 20.507 8.285 21.07 8.69a.334.334 0 0 1 .03.518z" class="color238a6f svgShape"/><path fill="#274aaa" d="M59.27 274.97c-.557-3.881.537-7.82 3.17-10.726l.308-.346a29.77 29.77 0 0 0 6.567-12.658c.743-3.092.923-6.603-1.33-9.082-1.2-1.321-3.028-1.957-4.742-1.46-2.113.613-2.743 2.501-3.275 4.267-.46 1.524-.958 3.142-2.42 4-.709.414-1.592.498-2.315.11-1.197-.643-1.235-2.032-1.054-3.218a13.6 13.6 0 0 1 3.708-7.412c2.072-2.112 4.86-3.57 5.852-6.59.449-1.365.235-2.9-.737-3.957-2.195-2.39-5.888.206-8.074-2.281-.77-.877-1.043-2.07-.9-3.227.259-2.099 1.65-3.749 3.055-5.255 1.029-1.104 2.116-2.217 2.508-3.718.14-.538.165-1.106.041-1.647-.54-2.374-3.173-2.555-4.847-1.533-1.304.796-2.164 2.136-2.977 3.43l1.21-13.332c.133-1.476.261-3.004-.219-4.407-.48-1.402-1.743-2.65-3.225-2.62-1.167.023-2.205.83-2.823 1.82s-.889 2.153-1.15 3.29l-3.655 15.872c-.525-1.804-1.496-3.252-2.661-4.727s-3.11-2.496-4.928-2.022c-1.628.424-2.79 1.956-3.206 3.587-.416 1.63-.208 3.352.102 5.005 1.108 5.907 4.123 10.947 7.588 15.857-3.233-1.884-5.966-4.782-9.69-4.432-1.95.183-1.892 3.473-1.53 5.397.36 1.924 1.372 3.654 2.367 5.34l7.047 11.95c-2.482-.891-5.062-1.798-7.727-1.17-1.208.285-2.328.923-3.075 1.916-1.794 2.384-.596 5.228.895 7.425a26.653 26.653 0 0 0 13.379 10.19c4.009 1.361 5.968 6.42 6.543 10.615.341 2.487.224 5.283 2.516 6.878.973.678 2.183.938 3.361.802 2.932-.338 4.97-2.715 5.864-5.346.634-1.866.808-4.295.48-6.585z" class="color27aa7b svgShape"/><path fill="#233e8a" d="M56.077 286.394a.371.371 0 0 0 .381-.577C45.178 269.52 43.74 246.903 44.52 230.8c.847-17.47 4.413-31.245 4.45-31.383a.373.373 0 0 0-.721-.188c-.036.138-3.622 13.988-4.472 31.535-.786 16.218.67 39.007 12.069 55.477.057.082.14.134.23.153z" class="color238a6f svgShape"/><path fill="#233e8a" d="M44.139 229.893a.371.371 0 0 0 .354-.61c-.062-.072-6.28-7.123-7.17-11.255a.372.372 0 1 0-.728.157c.932 4.322 7.08 11.296 7.341 11.59a.37.37 0 0 0 .203.118z" class="color238a6f svgShape"/><path fill="#233e8a" d="M44.14 229.894a.373.373 0 0 0 .42-.226c.034-.085 3.468-8.512 7.452-10.23a.372.372 0 1 0-.295-.683c-4.265 1.838-7.703 10.277-7.848 10.635a.372.372 0 0 0 .27.504zM44.238 248.238a.372.372 0 0 0 .293-.667c-.094-.067-9.431-6.825-10.751-12.417a.372.372 0 1 0-.725.171c1.384 5.863 10.648 12.568 11.042 12.851a.37.37 0 0 0 .141.062zM44.112 246.323a.373.373 0 0 0 .402-.185c.058-.105 5.836-10.513 11.292-12.504a.372.372 0 0 0-.255-.699c-5.719 2.086-11.448 12.405-11.69 12.844a.373.373 0 0 0 .251.544zM46.08 261.754a.373.373 0 0 0 .163-.727l-.098-.023c-3.863-.918-11.013-3.132-15.503-7.649a.372.372 0 0 0-.528.525c4.62 4.648 11.919 6.912 15.858 7.848l.097.023.012.003zM48.682 271.41a.372.372 0 0 0 .416-.216c.075-.171 7.543-17.096 14.85-19.915a.372.372 0 1 0-.268-.695c-7.596 2.93-14.954 19.603-15.264 20.311a.372.372 0 0 0 .266.514z" class="color238a6f svgShape"/><path fill="#375bc0" d="M87.333 251.905c-.667 1.624-1.87 2.958-3.05 4.258-2.783 3.074-5.572 6.147-8.36 9.221 2.343-.333 4.774-.662 7.002.373 1.01.473 1.876 1.237 2.354 2.242 1.14 2.421-.425 4.702-2.136 6.36a23.935 23.935 0 0 1-13.605 6.525c-3.765.464-6.409 4.552-7.675 8.134-.75 2.122-1.155 4.6-3.456 5.587-.98.415-2.092.425-3.102.092a5.314 5.314 0 0 1-2.18-1.363 4.807 4.807 0 0 1-.445-.503c-.87-1.097-1.382-2.494-1.556-3.895-.217-1.755.073-3.92.778-5.872 1.194-3.306.947-6.965-.836-9.995a26.686 26.686 0 0 1-3.678-12.672c-.092-2.852.387-5.969 2.818-7.738 1.29-.943 3.016-1.17 4.432-.42 1.744.918 1.952 2.692 2.097 4.34.13 1.42.276 2.933 1.402 3.953.546.493 1.31.725 2.015.517 1.165-.348 1.455-1.561 1.508-2.634a12.21 12.21 0 0 0-1.909-7.187c-1.44-2.227-3.625-4.016-3.944-6.853-.15-1.276.32-2.586 1.363-3.34 2.364-1.7 5.138 1.252 7.51-.536.832-.633 1.291-1.629 1.373-2.672.155-1.89-.768-3.591-1.725-5.172-.706-1.155-1.46-2.33-1.532-3.721-.024-.498.058-1 .266-1.455.903-1.986 3.252-1.667 4.533-.464 1.005.938 1.513 2.267 1.996 3.552.45-3.977.904-7.955 1.358-11.932.15-1.32.314-2.688.99-3.828.678-1.146 2.011-2.016 3.312-1.72 1.02.236 1.783 1.13 2.145 2.116.363.981.392 2.05.416 3.098.111 4.867.217 9.739.329 14.605.787-1.488 1.904-2.585 3.194-3.668 1.29-1.087 3.185-1.629 4.698-.884 1.353.672 2.093 2.228 2.165 3.736.068 1.508-.425 2.982-1 4.378-2.045 4.988-5.611 8.864-9.545 12.552 3.18-1.068 6.108-3.118 9.318-2.137 1.677.518 1.029 3.398.362 5.022z" class="color37c092 svgShape"/><path fill="#233e8a" d="M73.54 247.043c-2.243 14.296-7.603 33.88-20.415 46.29a4.807 4.807 0 0 1-.445-.502c12.668-12.28 17.974-31.71 20.198-45.89 2.43-15.499 1.797-28.249 1.793-28.374a.335.335 0 0 1 .666-.039c.005.13.643 12.948-1.797 28.515z" class="color238a6f svgShape"/><path fill="#233e8a" d="M73.38 246.215a.333.333 0 0 1-.2-.602c.067-.05 6.81-5.116 8.341-8.584a.334.334 0 1 1 .611.27c-1.603 3.628-8.27 8.638-8.553 8.85a.332.332 0 0 1-.2.066z" class="color238a6f svgShape"/><path fill="#233e8a" d="M73.379 246.215a.334.334 0 0 1-.328-.275c-.015-.08-1.5-8.108-4.689-10.339a.334.334 0 1 1 .383-.547c3.413 2.389 4.901 10.426 4.963 10.767a.334.334 0 0 1-.33.394zM69.96 262.312a.333.333 0 0 1-.135-.64c.095-.042 9.524-4.283 11.7-8.955a.333.333 0 1 1 .605.282c-2.28 4.899-11.637 9.107-12.034 9.284a.332.332 0 0 1-.135.029zM70.42 260.652a.334.334 0 0 1-.32-.236c-.032-.102-3.217-10.294-7.649-13.034a.334.334 0 0 1 .351-.568c4.645 2.871 7.804 12.977 7.937 13.405a.334.334 0 0 1-.32.433zM65.888 273.85a.334.334 0 0 1-.01-.668l.09-.003c3.56-.104 10.243-.75 15.007-3.904a.334.334 0 0 1 .368.557c-4.902 3.244-11.725 3.908-15.355 4.015l-.09.003h-.01zM61.85 281.86a.334.334 0 0 1-.327-.266c-.035-.163-3.522-16.388-9.428-20.19a.334.334 0 1 1 .361-.562c6.14 3.953 9.577 19.936 9.72 20.614a.334.334 0 0 1-.327.403z" class="color238a6f svgShape"/><path fill="#e8eefe" d="M57.693 330.833h-11.55c-8.678 0-15.713-7.035-15.713-15.712v-26.522a5.535 5.535 0 0 1 5.535-5.535H67.87a5.535 5.535 0 0 1 5.535 5.535v26.522c0 8.677-7.035 15.712-15.713 15.712z" class="coloreae8fe svgShape"/><path fill="#a7afc6" d="M73.406 289.672V286.6a3.537 3.537 0 0 0-3.537-3.536H33.966a3.537 3.537 0 0 0-3.536 3.536v3.072h42.976z" class="colora7abc6 svgShape"/><path fill="#d7dff4" d="m405.536 156.011-4.626 1.89-.144 4.286a15.883 15.883 0 0 0-2.796 2.77l-4.288.102-1.935 4.608 2.93 3.133a15.87 15.87 0 0 0-.02 3.936l-2.959 3.103 1.89 4.626 4.285.144a15.87 15.87 0 0 0 2.77 2.796l.103 4.288 4.607 1.935 3.133-2.93c1.293.168 2.614.18 3.937.02l3.103 2.96 4.626-1.89.144-4.286a15.88 15.88 0 0 0 2.796-2.77l4.288-.103 1.935-4.607-2.93-3.133c.168-1.293.179-2.613.02-3.936l2.959-3.103-1.89-4.626-4.285-.144a15.885 15.885 0 0 0-2.77-2.796l-.103-4.288-4.607-1.935-3.134 2.93a15.881 15.881 0 0 0-3.936-.02l-3.103-2.96z" class="colord7daf4 svgShape"/><path fill="#ffffff" d="M407.181 166.656c4.74-1.936 10.145.333 12.078 5.066 1.934 4.732-.336 10.137-5.076 12.073a9.258 9.258 0 0 1-7.002-17.139z" class="colorfff svgShape"/><path fill="#d7dff4" d="m379.717 188.96-3.848 1.571-.12 3.565a13.214 13.214 0 0 0-2.326 2.305l-3.568.086-1.61 3.832 2.438 2.607a13.202 13.202 0 0 0-.017 3.275l-2.462 2.582 1.573 3.848 3.565.12a13.204 13.204 0 0 0 2.305 2.326l.085 3.567 3.833 1.61 2.606-2.437c1.076.14 2.175.148 3.275.016l2.582 2.462 3.848-1.572.12-3.565a13.212 13.212 0 0 0 2.326-2.305l3.568-.085 1.61-3.833-2.438-2.607c.14-1.075.148-2.174.017-3.275l2.461-2.581-1.572-3.849-3.565-.12a13.215 13.215 0 0 0-2.305-2.326l-.085-3.567-3.833-1.61-2.607 2.438a13.212 13.212 0 0 0-3.274-.017l-2.582-2.462z" class="colord7daf4 svgShape"/><path fill="#ffffff" d="M381.086 197.815a7.703 7.703 0 0 1 10.048 4.214 7.703 7.703 0 0 1-4.223 10.045 7.702 7.702 0 0 1-5.825-14.26z" class="colorfff svgShape"/><path fill="#dae2f9" d="M67.327 142.82c0 7.33-13.274 22.345-13.274 22.345s-13.274-15.014-13.274-22.345 5.943-13.274 13.274-13.274 13.274 5.943 13.274 13.274z" class="colorf9dae0 svgShape"/><circle cx="54.053" cy="142.82" r="7.82" fill="#ffffff" class="colorfff svgShape"/><path fill="#093ed1" d="M348.697 90.317v23.717c0 .648-.53 1.187-1.187 1.187h-34.384l-7.686 3.974v-3.974h-3.023a1.191 1.191 0 0 1-1.187-1.187V90.317c0-.657.53-1.187 1.187-1.187h45.093c.657 0 1.187.53 1.187 1.187z" class="color0c8ff9 svgShape"/><circle cx="336.277" cy="101.97" r="2.526" fill="#ffffff" class="colorfff svgShape"/><circle cx="325.542" cy="101.97" r="2.526" fill="#ffffff" class="colorfff svgShape"/><circle cx="314.808" cy="101.97" r="2.526" fill="#ffffff" class="colorfff svgShape"/><circle cx="161.314" cy="101.388" r="11.291" fill="#82a2fa" class="color82cafa svgShape"/><circle cx="161.314" cy="97.926" r="2.496" fill="#ffffff" class="colorfff svgShape"/><path fill="#ffffff" d="M167.184 107.345h-11.74c.16-3.115 2.725-5.6 5.87-5.6a5.881 5.881 0 0 1 5.87 5.6z" class="colorfff svgShape"/><circle cx="91.502" cy="71.73" r="20.748" fill="#dae2f9" class="colorf9dae0 svgShape"/><path fill="#ffffff" d="M91.502 86.938c-8.386 0-15.208-6.822-15.208-15.208s6.822-15.208 15.208-15.208 15.208 6.823 15.208 15.208-6.822 15.208-15.208 15.208zm0-28.416c-7.283 0-13.208 5.925-13.208 13.208s5.925 13.208 13.208 13.208 13.208-5.925 13.208-13.208-5.925-13.208-13.208-13.208z" class="colorfff svgShape"/><path fill="#ffffff" d="M91.502 86.938c-4.93 0-8.79-6.68-8.79-15.208s3.86-15.208 8.79-15.208 8.79 6.68 8.79 15.208-3.861 15.208-8.79 15.208zm0-28.416c-3.68 0-6.79 6.049-6.79 13.208 0 7.16 3.11 13.208 6.79 13.208s6.79-6.048 6.79-13.208-3.11-13.208-6.79-13.208z" class="colorfff svgShape"/><path fill="#ffffff" d="M90.502 57.522h2v28.416h-2z" class="colorfff svgShape"/><path fill="#ffffff" d="M77.703 67.014h27.515v2H77.703zM77.703 74.446h27.515v2H77.703z" class="colorfff svgShape"/><path fill="#1a2649" d="M10.544 397h429.508v4H10.544z" class="color1a3a49 svgShape"/></svg>